<svg xmlns="http://www.w3.org/2000/svg" viewBox="0 0 1200 820" font-family="'Segoe UI', system-ui, -apple-system, sans-serif">
  <defs>
    <!-- Gradient backgrounds -->
    <linearGradient id="bgGrad" x1="0%" y1="0%" x2="100%" y2="100%">
      <stop offset="0%" style="stop-color:#0f172a"/>
      <stop offset="100%" style="stop-color:#1e293b"/>
    </linearGradient>
    <linearGradient id="getGrad" x1="0%" y1="0%" x2="0%" y2="100%">
      <stop offset="0%" style="stop-color:#3b82f6"/>
      <stop offset="100%" style="stop-color:#2563eb"/>
    </linearGradient>
    <linearGradient id="reviewGrad" x1="0%" y1="0%" x2="0%" y2="100%">
      <stop offset="0%" style="stop-color:#8b5cf6"/>
      <stop offset="100%" style="stop-color:#7c3aed"/>
    </linearGradient>
    <linearGradient id="planGrad" x1="0%" y1="0%" x2="0%" y2="100%">
      <stop offset="0%" style="stop-color:#f59e0b"/>
      <stop offset="100%" style="stop-color:#d97706"/>
    </linearGradient>
    <linearGradient id="auditGrad" x1="0%" y1="0%" x2="0%" y2="100%">
      <stop offset="0%" style="stop-color:#ef4444"/>
      <stop offset="100%" style="stop-color:#dc2626"/>
    </linearGradient>
    <linearGradient id="execGrad" x1="0%" y1="0%" x2="0%" y2="100%">
      <stop offset="0%" style="stop-color:#10b981"/>
      <stop offset="100%" style="stop-color:#059669"/>
    </linearGradient>
    <linearGradient id="shipGrad" x1="0%" y1="0%" x2="0%" y2="100%">
      <stop offset="0%" style="stop-color:#06b6d4"/>
      <stop offset="100%" style="stop-color:#0891b2"/>
    </linearGradient>
    <linearGradient id="yoloGrad" x1="0%" y1="0%" x2="100%" y2="0%">
      <stop offset="0%" style="stop-color:#3b82f6;stop-opacity:0.15"/>
      <stop offset="50%" style="stop-color:#10b981;stop-opacity:0.15"/>
      <stop offset="100%" style="stop-color:#06b6d4;stop-opacity:0.15"/>
    </linearGradient>
    <linearGradient id="releaseGrad" x1="0%" y1="0%" x2="100%" y2="0%">
      <stop offset="0%" style="stop-color:#f59e0b;stop-opacity:0.12"/>
      <stop offset="100%" style="stop-color:#ef4444;stop-opacity:0.12"/>
    </linearGradient>

    <!-- Drop shadow filter -->
    <filter id="shadow" x="-5%" y="-5%" width="115%" height="125%">
      <feDropShadow dx="0" dy="2" stdDeviation="4" flood-color="#000" flood-opacity="0.3"/>
    </filter>
    <filter id="glowBlue">
      <feDropShadow dx="0" dy="0" stdDeviation="6" flood-color="#3b82f6" flood-opacity="0.4"/>
    </filter>
    <filter id="glowGreen">
      <feDropShadow dx="0" dy="0" stdDeviation="6" flood-color="#10b981" flood-opacity="0.4"/>
    </filter>

    <!-- Arrow marker -->
    <marker id="arrow" markerWidth="10" markerHeight="7" refX="9" refY="3.5" orient="auto" markerUnits="strokeWidth">
      <polygon points="0 0, 10 3.5, 0 7" fill="#94a3b8"/>
    </marker>
    <marker id="arrowGreen" markerWidth="10" markerHeight="7" refX="9" refY="3.5" orient="auto" markerUnits="strokeWidth">
      <polygon points="0 0, 10 3.5, 0 7" fill="#10b981"/>
    </marker>
    <marker id="arrowAmber" markerWidth="10" markerHeight="7" refX="9" refY="3.5" orient="auto" markerUnits="strokeWidth">
      <polygon points="0 0, 10 3.5, 0 7" fill="#f59e0b"/>
    </marker>
  </defs>

  <!-- Background -->
  <rect width="1200" height="820" rx="12" fill="url(#bgGrad)"/>

  <!-- Title -->
  <text x="600" y="42" text-anchor="middle" fill="#f8fafc" font-size="22" font-weight="700" letter-spacing="0.5">TIKI WORKFLOW FRAMEWORK</text>
  <text x="600" y="64" text-anchor="middle" fill="#64748b" font-size="13">GitHub-Issue-Centric Development Pipeline</text>

  <!-- ========== STATE SYSTEM (top) ========== -->
  <g transform="translate(400, 82)">
    <rect x="0" y="0" width="400" height="52" rx="8" fill="#1e293b" stroke="#334155" stroke-width="1.5" filter="url(#shadow)"/>
    <text x="28" y="22" fill="#94a3b8" font-size="10" font-weight="600" letter-spacing="1">STATE SYSTEM</text>
    <rect x="16" y="30" width="110" height="16" rx="4" fill="#334155"/>
    <text x="71" y="41" text-anchor="middle" fill="#e2e8f0" font-size="9" font-family="'Cascadia Code', 'Fira Code', monospace">.tiki/state.json</text>
    <rect x="138" y="30" width="110" height="16" rx="4" fill="#334155"/>
    <text x="193" y="41" text-anchor="middle" fill="#e2e8f0" font-size="9" font-family="'Cascadia Code', 'Fira Code', monospace">.tiki/plans/*.json</text>
    <rect x="260" y="30" width="125" height="16" rx="4" fill="#334155"/>
    <text x="322" y="41" text-anchor="middle" fill="#e2e8f0" font-size="9" font-family="'Cascadia Code', 'Fira Code', monospace">.tiki/releases/*.json</text>
  </g>

  <!-- Dotted lines from state to pipeline steps -->
  <line x1="471" y1="134" x2="471" y2="168" stroke="#475569" stroke-width="1" stroke-dasharray="3,3"/>
  <line x1="593" y1="134" x2="593" y2="168" stroke="#475569" stroke-width="1" stroke-dasharray="3,3"/>
  <line x1="722" y1="134" x2="900" y2="168" stroke="#475569" stroke-width="1" stroke-dasharray="3,3"/>

  <!-- ========== MAIN PIPELINE ========== -->

  <!-- GET -->
  <g transform="translate(60, 170)" filter="url(#shadow)">
    <rect x="0" y="0" width="140" height="72" rx="10" fill="url(#getGrad)"/>
    <text x="70" y="26" text-anchor="middle" fill="#dbeafe" font-size="10" font-weight="600" letter-spacing="1">STEP 1</text>
    <text x="70" y="48" text-anchor="middle" fill="#fff" font-size="20" font-weight="700">GET</text>
    <text x="70" y="64" text-anchor="middle" fill="#bfdbfe" font-size="9">Fetch Issue</text>
  </g>

  <!-- Arrow GET→REVIEW -->
  <line x1="205" y1="206" x2="235" y2="206" stroke="#94a3b8" stroke-width="2" marker-end="url(#arrow)"/>

  <!-- REVIEW -->
  <g transform="translate(240, 170)" filter="url(#shadow)">
    <rect x="0" y="0" width="140" height="72" rx="10" fill="url(#reviewGrad)"/>
    <text x="70" y="26" text-anchor="middle" fill="#ede9fe" font-size="10" font-weight="600" letter-spacing="1">STEP 2</text>
    <text x="70" y="48" text-anchor="middle" fill="#fff" font-size="20" font-weight="700">REVIEW</text>
    <text x="70" y="64" text-anchor="middle" fill="#ddd6fe" font-size="9">Analyze &amp; Criteria</text>
  </g>

  <!-- Arrow REVIEW→PLAN -->
  <line x1="385" y1="206" x2="415" y2="206" stroke="#94a3b8" stroke-width="2" marker-end="url(#arrow)"/>

  <!-- PLAN -->
  <g transform="translate(420, 170)" filter="url(#shadow)">
    <rect x="0" y="0" width="140" height="72" rx="10" fill="url(#planGrad)"/>
    <text x="70" y="26" text-anchor="middle" fill="#fef3c7" font-size="10" font-weight="600" letter-spacing="1">STEP 3</text>
    <text x="70" y="48" text-anchor="middle" fill="#fff" font-size="20" font-weight="700">PLAN</text>
    <text x="70" y="64" text-anchor="middle" fill="#fde68a" font-size="9">Break into Phases</text>
  </g>

  <!-- Arrow PLAN→AUDIT -->
  <line x1="565" y1="206" x2="595" y2="206" stroke="#94a3b8" stroke-width="2" marker-end="url(#arrow)"/>

  <!-- AUDIT -->
  <g transform="translate(600, 170)" filter="url(#shadow)">
    <rect x="0" y="0" width="140" height="72" rx="10" fill="url(#auditGrad)"/>
    <text x="70" y="26" text-anchor="middle" fill="#fecaca" font-size="10" font-weight="600" letter-spacing="1">STEP 4</text>
    <text x="70" y="48" text-anchor="middle" fill="#fff" font-size="20" font-weight="700">AUDIT</text>
    <text x="70" y="64" text-anchor="middle" fill="#fca5a5" font-size="9">Validate Plan</text>
  </g>

  <!-- Arrow AUDIT→EXECUTE -->
  <line x1="745" y1="206" x2="775" y2="206" stroke="#94a3b8" stroke-width="2" marker-end="url(#arrow)"/>

  <!-- EXECUTE -->
  <g transform="translate(780, 170)" filter="url(#shadow)">
    <rect x="0" y="0" width="140" height="72" rx="10" fill="url(#execGrad)" filter="url(#glowGreen)"/>
    <text x="70" y="26" text-anchor="middle" fill="#d1fae5" font-size="10" font-weight="600" letter-spacing="1">STEP 5</text>
    <text x="70" y="48" text-anchor="middle" fill="#fff" font-size="20" font-weight="700">EXECUTE</text>
    <text x="70" y="64" text-anchor="middle" fill="#a7f3d0" font-size="9">Run Phases</text>
  </g>

  <!-- Arrow EXECUTE→SHIP -->
  <line x1="925" y1="206" x2="955" y2="206" stroke="#94a3b8" stroke-width="2" marker-end="url(#arrow)"/>

  <!-- SHIP -->
  <g transform="translate(960, 170)" filter="url(#shadow)">
    <rect x="0" y="0" width="140" height="72" rx="10" fill="url(#shipGrad)"/>
    <text x="70" y="26" text-anchor="middle" fill="#cffafe" font-size="10" font-weight="600" letter-spacing="1">STEP 6</text>
    <text x="70" y="48" text-anchor="middle" fill="#fff" font-size="20" font-weight="700">SHIP</text>
    <text x="70" y="64" text-anchor="middle" fill="#a5f3fc" font-size="9">Commit &amp; Close</text>
  </g>

  <!-- ========== AUDIT GATE (below AUDIT) ========== -->
  <g transform="translate(612, 258)">
    <text x="58" y="12" text-anchor="middle" fill="#94a3b8" font-size="9" font-weight="600" letter-spacing="0.5">QUALITY GATE</text>
    <rect x="0" y="18" width="36" height="20" rx="4" fill="#166534"/>
    <text x="18" y="32" text-anchor="middle" fill="#4ade80" font-size="9" font-weight="700">PASS</text>
    <rect x="42" y="18" width="36" height="20" rx="4" fill="#713f12"/>
    <text x="60" y="32" text-anchor="middle" fill="#fbbf24" font-size="9" font-weight="700">WARN</text>
    <rect x="84" y="18" width="34" height="20" rx="4" fill="#7f1d1d"/>
    <text x="101" y="32" text-anchor="middle" fill="#f87171" font-size="9" font-weight="700">FAIL</text>
  </g>

  <!-- ========== EXECUTE DETAIL (Sub-agents + Phases) ========== -->
  <g transform="translate(60, 310)">
    <rect x="0" y="0" width="1080" height="140" rx="10" fill="#0f172a" stroke="#1e3a5f" stroke-width="1.5"/>
    <text x="24" y="24" fill="#10b981" font-size="13" font-weight="700">EXECUTE: Phase Execution with Sub-Agents</text>
    <text x="24" y="40" fill="#64748b" font-size="10">Each phase runs in a fresh context. Prior phase summaries are passed forward.</text>

    <!-- Phase boxes -->
    <g transform="translate(40, 56)">
      <!-- Phase 1 -->
      <rect x="0" y="0" width="180" height="68" rx="8" fill="#064e3b" stroke="#10b981" stroke-width="1"/>
      <text x="14" y="20" fill="#6ee7b7" font-size="10" font-weight="600">Phase 1</text>
      <text x="14" y="36" fill="#a7f3d0" font-size="9">Sub-agent executes</text>
      <text x="14" y="50" fill="#6ee7b7" font-size="8">Verification: tests, types, lint</text>
      <rect x="108" y="4" width="64" height="16" rx="4" fill="#166534"/>
      <text x="140" y="15" text-anchor="middle" fill="#4ade80" font-size="8" font-weight="600">SUMMARY</text>

      <!-- Arrow 1→2 -->
      <line x1="185" y1="34" x2="220" y2="34" stroke="#10b981" stroke-width="1.5" marker-end="url(#arrowGreen)" stroke-dasharray="5,3"/>
      <text x="202" y="28" text-anchor="middle" fill="#6ee7b7" font-size="7">summary</text>

      <!-- Phase 2 -->
      <rect x="225" y="0" width="180" height="68" rx="8" fill="#064e3b" stroke="#10b981" stroke-width="1"/>
      <text x="239" y="20" fill="#6ee7b7" font-size="10" font-weight="600">Phase 2</text>
      <text x="239" y="36" fill="#a7f3d0" font-size="9">Sub-agent + prior summaries</text>
      <text x="239" y="50" fill="#6ee7b7" font-size="8">Verification: tests, types, lint</text>
      <rect x="333" y="4" width="64" height="16" rx="4" fill="#166534"/>
      <text x="365" y="15" text-anchor="middle" fill="#4ade80" font-size="8" font-weight="600">SUMMARY</text>

      <!-- Arrow 2→3 -->
      <line x1="410" y1="34" x2="445" y2="34" stroke="#10b981" stroke-width="1.5" marker-end="url(#arrowGreen)" stroke-dasharray="5,3"/>
      <text x="427" y="28" text-anchor="middle" fill="#6ee7b7" font-size="7">summary</text>

      <!-- Phase 3 -->
      <rect x="450" y="0" width="180" height="68" rx="8" fill="#064e3b" stroke="#10b981" stroke-width="1"/>
      <text x="464" y="20" fill="#6ee7b7" font-size="10" font-weight="600">Phase 3</text>
      <text x="464" y="36" fill="#a7f3d0" font-size="9">Sub-agent + all summaries</text>
      <text x="464" y="50" fill="#6ee7b7" font-size="8">Verification: tests, types, lint</text>
      <rect x="558" y="4" width="64" height="16" rx="4" fill="#166534"/>
      <text x="590" y="15" text-anchor="middle" fill="#4ade80" font-size="8" font-weight="600">SUMMARY</text>

      <!-- Arrow 3→N -->
      <line x1="635" y1="34" x2="670" y2="34" stroke="#10b981" stroke-width="1.5" marker-end="url(#arrowGreen)" stroke-dasharray="5,3"/>

      <!-- Phase N -->
      <rect x="675" y="0" width="180" height="68" rx="8" fill="#064e3b" stroke="#10b981" stroke-width="1"/>
      <text x="689" y="20" fill="#6ee7b7" font-size="10" font-weight="600">Phase N</text>
      <text x="689" y="36" fill="#a7f3d0" font-size="9">Final phase execution</text>
      <text x="689" y="50" fill="#6ee7b7" font-size="8">All criteria verified</text>
      <rect x="783" y="4" width="64" height="16" rx="4" fill="#166534"/>
      <text x="815" y="15" text-anchor="middle" fill="#4ade80" font-size="8" font-weight="600">COMPLETE</text>
    </g>
  </g>

  <!-- ========== YOLO COMMAND ========== -->
  <g transform="translate(60, 475)">
    <rect x="0" y="0" width="1080" height="70" rx="10" fill="url(#yoloGrad)" stroke="#3b82f6" stroke-width="1" stroke-opacity="0.4"/>
    <text x="24" y="24" fill="#60a5fa" font-size="14" font-weight="700">YOLO</text>
    <text x="76" y="24" fill="#94a3b8" font-size="11">Full Automated Pipeline</text>
    <text x="24" y="42" fill="#64748b" font-size="10">Runs GET → REVIEW → PLAN → AUDIT → EXECUTE → SHIP in one command. Pauses on: audit fail, phase fail, test fail.</text>

    <!-- Mini pipeline -->
    <g transform="translate(24, 50)">
      <rect x="0" y="0" width="50" height="14" rx="3" fill="#2563eb" opacity="0.6"/>
      <text x="25" y="10" text-anchor="middle" fill="#fff" font-size="7" font-weight="600">GET</text>
      <text x="56" y="10" fill="#475569" font-size="8">→</text>
      <rect x="64" y="0" width="60" height="14" rx="3" fill="#7c3aed" opacity="0.6"/>
      <text x="94" y="10" text-anchor="middle" fill="#fff" font-size="7" font-weight="600">REVIEW</text>
      <text x="130" y="10" fill="#475569" font-size="8">→</text>
      <rect x="138" y="0" width="50" height="14" rx="3" fill="#d97706" opacity="0.6"/>
      <text x="163" y="10" text-anchor="middle" fill="#fff" font-size="7" font-weight="600">PLAN</text>
      <text x="194" y="10" fill="#475569" font-size="8">→</text>
      <rect x="202" y="0" width="54" height="14" rx="3" fill="#dc2626" opacity="0.6"/>
      <text x="229" y="10" text-anchor="middle" fill="#fff" font-size="7" font-weight="600">AUDIT</text>
      <text x="262" y="10" fill="#475569" font-size="8">→</text>
      <rect x="270" y="0" width="66" height="14" rx="3" fill="#059669" opacity="0.6"/>
      <text x="303" y="10" text-anchor="middle" fill="#fff" font-size="7" font-weight="600">EXECUTE</text>
      <text x="342" y="10" fill="#475569" font-size="8">→</text>
      <rect x="350" y="0" width="50" height="14" rx="3" fill="#0891b2" opacity="0.6"/>
      <text x="375" y="10" text-anchor="middle" fill="#fff" font-size="7" font-weight="600">SHIP</text>
    </g>

    <!-- Pause indicators -->
    <g transform="translate(780, 48)">
      <text x="0" y="12" fill="#94a3b8" font-size="9" font-weight="600">PAUSE CONDITIONS:</text>
      <rect x="130" y="1" width="56" height="14" rx="3" fill="#7f1d1d"/>
      <text x="158" y="12" text-anchor="middle" fill="#fca5a5" font-size="8">Audit Fail</text>
      <rect x="192" y="1" width="60" height="14" rx="3" fill="#7f1d1d"/>
      <text x="222" y="12" text-anchor="middle" fill="#fca5a5" font-size="8">Phase Fail</text>
      <rect x="258" y="1" width="56" height="14" rx="3" fill="#7f1d1d"/>
      <text x="286" y="12" text-anchor="middle" fill="#fca5a5" font-size="8">Test Fail</text>
    </g>
  </g>

  <!-- ========== RELEASE COMMAND ========== -->
  <g transform="translate(60, 560)">
    <rect x="0" y="0" width="1080" height="120" rx="10" fill="url(#releaseGrad)" stroke="#f59e0b" stroke-width="1" stroke-opacity="0.3"/>
    <text x="24" y="24" fill="#fbbf24" font-size="14" font-weight="700">RELEASE</text>
    <text x="100" y="24" fill="#94a3b8" font-size="11">Multi-Issue Orchestration with Dependency Resolution</text>

    <!-- Dependency resolution -->
    <g transform="translate(24, 36)">
      <text x="0" y="12" fill="#64748b" font-size="10">1. Parse dependencies from issue bodies</text>
      <text x="0" y="26" fill="#64748b" font-size="10">2. Topological sort (Kahn's algorithm)</text>
      <text x="0" y="40" fill="#64748b" font-size="10">3. Execute issues in dependency order</text>
    </g>

    <!-- Issue YOLO boxes -->
    <g transform="translate(340, 36)">
      <rect x="0" y="0" width="130" height="44" rx="6" fill="#1e293b" stroke="#f59e0b" stroke-width="1" stroke-opacity="0.5"/>
      <text x="65" y="16" text-anchor="middle" fill="#fbbf24" font-size="9" font-weight="600">Issue #34</text>
      <text x="65" y="32" text-anchor="middle" fill="#94a3b8" font-size="8">YOLO (full pipeline)</text>

      <line x1="135" y1="22" x2="155" y2="22" stroke="#f59e0b" stroke-width="1.5" marker-end="url(#arrowAmber)"/>

      <rect x="160" y="0" width="130" height="44" rx="6" fill="#1e293b" stroke="#f59e0b" stroke-width="1" stroke-opacity="0.5"/>
      <text x="225" y="16" text-anchor="middle" fill="#fbbf24" font-size="9" font-weight="600">Issue #35</text>
      <text x="225" y="32" text-anchor="middle" fill="#94a3b8" font-size="8">YOLO (full pipeline)</text>

      <line x1="295" y1="22" x2="315" y2="22" stroke="#f59e0b" stroke-width="1.5" marker-end="url(#arrowAmber)"/>

      <rect x="320" y="0" width="130" height="44" rx="6" fill="#1e293b" stroke="#f59e0b" stroke-width="1" stroke-opacity="0.5"/>
      <text x="385" y="16" text-anchor="middle" fill="#fbbf24" font-size="9" font-weight="600">Issue #36</text>
      <text x="385" y="32" text-anchor="middle" fill="#94a3b8" font-size="8">YOLO (full pipeline)</text>

      <line x1="455" y1="22" x2="475" y2="22" stroke="#f59e0b" stroke-width="1.5" marker-end="url(#arrowAmber)"/>

      <!-- Tag & Ship -->
      <rect x="480" y="0" width="130" height="44" rx="6" fill="#713f12" stroke="#fbbf24" stroke-width="1"/>
      <text x="545" y="16" text-anchor="middle" fill="#fde68a" font-size="9" font-weight="700">TAG &amp; SHIP</text>
      <text x="545" y="32" text-anchor="middle" fill="#fbbf24" font-size="8">git tag + milestone</text>
    </g>

    <!-- Dependency pattern note -->
    <g transform="translate(24, 86)">
      <text x="0" y="12" fill="#78716c" font-size="9" font-style="italic">Dependencies detected from: "depends on #N", "blocked by #N", "requires #N", "after #N"</text>
      <text x="520" y="12" fill="#78716c" font-size="9">Supports: --dry-run, --continue, --no-tag</text>
    </g>
  </g>

  <!-- ========== DESKTOP INTEGRATION ========== -->
  <g transform="translate(60, 700)">
    <rect x="0" y="0" width="1080" height="100" rx="10" fill="#0f172a" stroke="#334155" stroke-width="1.5"/>
    <text x="24" y="24" fill="#e2e8f0" font-size="13" font-weight="700">DESKTOP APP INTEGRATION</text>
    <text x="210" y="24" fill="#64748b" font-size="11">(Tauri + React + Zustand)</text>

    <!-- Data flow -->
    <g transform="translate(24, 40)">
      <!-- Terminal box -->
      <rect x="0" y="0" width="150" height="44" rx="6" fill="#1e293b" stroke="#475569" stroke-width="1"/>
      <text x="75" y="16" text-anchor="middle" fill="#e2e8f0" font-size="9" font-weight="600">Terminal (PTY)</text>
      <text x="75" y="32" text-anchor="middle" fill="#94a3b8" font-size="8">/tiki:yolo 42</text>

      <line x1="155" y1="22" x2="185" y2="22" stroke="#94a3b8" stroke-width="1.5" marker-end="url(#arrow)"/>
      <text x="170" y="16" text-anchor="middle" fill="#64748b" font-size="7">writes</text>

      <!-- State file box -->
      <rect x="190" y="0" width="150" height="44" rx="6" fill="#1e293b" stroke="#475569" stroke-width="1"/>
      <text x="265" y="16" text-anchor="middle" fill="#e2e8f0" font-size="9" font-weight="600">.tiki/state.json</text>
      <text x="265" y="32" text-anchor="middle" fill="#94a3b8" font-size="8">Central state hub</text>

      <line x1="345" y1="22" x2="375" y2="22" stroke="#94a3b8" stroke-width="1.5" marker-end="url(#arrow)"/>
      <text x="360" y="16" text-anchor="middle" fill="#64748b" font-size="7">detects</text>

      <!-- Watcher box -->
      <rect x="380" y="0" width="150" height="44" rx="6" fill="#1e293b" stroke="#475569" stroke-width="1"/>
      <text x="455" y="16" text-anchor="middle" fill="#e2e8f0" font-size="9" font-weight="600">Rust File Watcher</text>
      <text x="455" y="32" text-anchor="middle" fill="#94a3b8" font-size="8">notify crate</text>

      <line x1="535" y1="22" x2="565" y2="22" stroke="#94a3b8" stroke-width="1.5" marker-end="url(#arrow)"/>
      <text x="550" y="16" text-anchor="middle" fill="#64748b" font-size="7">emits</text>

      <!-- Event box -->
      <rect x="570" y="0" width="150" height="44" rx="6" fill="#1e293b" stroke="#475569" stroke-width="1"/>
      <text x="645" y="16" text-anchor="middle" fill="#e2e8f0" font-size="9" font-weight="600">Tauri Event</text>
      <text x="645" y="32" text-anchor="middle" fill="#94a3b8" font-size="8">tiki-file-changed</text>

      <line x1="725" y1="22" x2="755" y2="22" stroke="#94a3b8" stroke-width="1.5" marker-end="url(#arrow)"/>
      <text x="740" y="16" text-anchor="middle" fill="#64748b" font-size="7">updates</text>

      <!-- React UI box -->
      <rect x="760" y="0" width="280" height="44" rx="6" fill="#1e293b" stroke="#475569" stroke-width="1"/>
      <text x="900" y="16" text-anchor="middle" fill="#e2e8f0" font-size="9" font-weight="600">React UI (Zustand Stores)</text>
      <text x="900" y="32" text-anchor="middle" fill="#94a3b8" font-size="8">Sidebar | Kanban | Detail | Terminal</text>
    </g>
  </g>

  <!-- ========== LEGEND ========== -->
  <g transform="translate(60, 256)">
    <text x="0" y="10" fill="#94a3b8" font-size="9" font-weight="600" letter-spacing="0.5">STATUS FLOW:</text>
    <rect x="90" y="0" width="60" height="14" rx="3" fill="#334155"/>
    <text x="120" y="10" text-anchor="middle" fill="#94a3b8" font-size="8">pending</text>
    <text x="154" y="10" fill="#475569" font-size="8">→</text>
    <rect x="162" y="0" width="64" height="14" rx="3" fill="#334155"/>
    <text x="194" y="10" text-anchor="middle" fill="#c084fc" font-size="8">planning</text>
    <text x="230" y="10" fill="#475569" font-size="8">→</text>
    <rect x="238" y="0" width="68" height="14" rx="3" fill="#334155"/>
    <text x="272" y="10" text-anchor="middle" fill="#34d399" font-size="8">executing</text>
    <text x="310" y="10" fill="#475569" font-size="8">→</text>
    <rect x="318" y="0" width="64" height="14" rx="3" fill="#334155"/>
    <text x="350" y="10" text-anchor="middle" fill="#22d3ee" font-size="8">shipping</text>
    <text x="386" y="10" fill="#475569" font-size="8">→</text>
    <rect x="394" y="0" width="72" height="14" rx="3" fill="#166534"/>
    <text x="430" y="10" text-anchor="middle" fill="#4ade80" font-size="8">completed</text>
  </g>
</svg>